<?xml version="1.0" encoding="UTF-8" standalone="no"?>
<!-- Created with Inkscape (http://www.inkscape.org/) -->

<svg
   width="500"
   height="500"
   viewBox="0 0 132.29167 132.29167"
   version="1.1"
   id="svg5"
   xml:space="preserve"
   xmlns="http://www.w3.org/2000/svg"
   xmlns:svg="http://www.w3.org/2000/svg"><defs
     id="defs2" /><g
     id="layer1"><g
       id="path391"><path
         style="color:#000000;fill:#dbe442;stroke-width:4.15554;-inkscape-stroke:none"
         d="M 128.23932,66.353226 A 61.817638,61.817638 0 0 1 66.421684,128.17086 61.817638,61.817638 0 0 1 4.6040459,66.353226 61.817638,61.817638 0 0 1 66.421684,4.5355873 61.817638,61.817638 0 0 1 128.23932,66.353226 Z"
         id="path4153" /><path
         style="color:#000000;fill:#072031;-inkscape-stroke:none"
         d="m 66.421875,2.4570313 c -35.263814,0 -63.8964844,28.6326707 -63.8964844,63.8964847 0,35.263814 28.6326704,63.894534 63.8964844,63.894534 35.263815,0 63.894535,-28.63072 63.894535,-63.894534 0,-35.263814 -28.63072,-63.8964848 -63.894535,-63.8964847 z m 0,4.1562499 c 33.017996,10e-8 59.740235,26.7222388 59.740235,59.7402348 0,33.017995 -26.722239,59.740234 -59.740235,59.740234 -33.017996,0 -59.7402344,-26.722239 -59.7402344,-59.740234 0,-33.017996 26.7222384,-59.7402348 59.7402344,-59.7402348 z"
         id="path4155" /></g><g
       aria-label="ROS"
       transform="scale(1.382201,0.72348378)"
       id="text113"
       style="font-size:10.2924px;fill:#072031;stroke-width:0.857699"><path
         d="m 13.387893,86.645628 4.353551,5.86783 H 14.55515 l -4.258909,-5.74164 v 5.74164 H 7.2676835 v -13.21839 h 6.0886625 q 0.725591,0 1.388088,0.157737 0.662497,0.157737 1.167257,0.473212 0.536307,0.283927 0.820234,0.725592 0.315475,0.441664 0.315475,1.009519 v 2.61844 q 0,0.567855 -0.315475,1.009519 -0.283927,0.441665 -0.788687,0.75714 -0.504759,0.283927 -1.198804,0.441664 -0.662497,0.157737 -1.356541,0.157737 z m 0.630949,-4.700573 q 0,-0.441664 -0.347022,-0.662497 -0.347022,-0.220832 -0.946424,-0.220832 h -2.429155 v 3.817244 h 2.429155 q 0.599402,0 0.946424,-0.220832 0.347022,-0.220833 0.347022,-0.662497 z"
         style="font-size:27.4463px;font-family:Dhurjati;-inkscape-font-specification:'Dhurjati, Normal'"
         id="path4096" /><path
         d="m 18.908679,81.661128 q 0,-0.567855 0.315474,-1.009519 0.315475,-0.441665 0.820235,-0.725592 0.504759,-0.315475 1.167256,-0.473212 0.694044,-0.157737 1.419636,-0.157737 h 2.586893 q 0.725592,0 1.388089,0.157737 0.694044,0.157737 1.198804,0.473212 0.504759,0.283927 0.820234,0.725592 0.315475,0.441664 0.315475,1.009519 v 8.48627 q 0,0.567854 -0.315475,1.009519 -0.315475,0.441665 -0.820234,0.757139 -0.50476,0.283928 -1.198804,0.441665 -0.662497,0.157737 -1.388089,0.157737 H 22.63128 q -0.725592,0 -1.419636,-0.157737 -0.662497,-0.157737 -1.167256,-0.441665 -0.50476,-0.315474 -0.820235,-0.757139 -0.315474,-0.441665 -0.315474,-1.009519 z m 6.971991,0.283927 q 0,-0.441664 -0.347022,-0.662497 -0.315475,-0.220832 -0.914877,-0.220832 h -1.388089 q -0.599402,0 -0.946424,0.220832 -0.347022,0.220833 -0.347022,0.662497 v 7.918416 q 0,0.441664 0.347022,0.662497 0.347022,0.220832 0.946424,0.220832 h 1.388089 q 0.599402,0 0.914877,-0.220832 0.347022,-0.220833 0.347022,-0.662497 z"
         style="font-size:27.4463px;font-family:Dhurjati;-inkscape-font-specification:'Dhurjati, Normal'"
         id="path4098" /><path
         d="m 35.092489,86.109321 q -0.725592,0 -1.419637,-0.126189 -0.662497,-0.157738 -1.167256,-0.441665 -0.50476,-0.315475 -0.820234,-0.757139 -0.315475,-0.441665 -0.315475,-1.009519 v -2.113681 q 0,-0.567855 0.315475,-1.009519 0.315474,-0.441665 0.820234,-0.725592 0.504759,-0.315475 1.167256,-0.473212 0.694045,-0.157737 1.419637,-0.157737 h 2.460702 q 0.75714,0 1.419637,0.157737 0.662496,0.157737 1.167256,0.473212 0.536307,0.283927 0.820234,0.725592 0.315475,0.441664 0.315475,1.009519 v 1.293446 h -3.028557 v -1.009519 q 0,-0.441664 -0.347022,-0.662497 -0.347023,-0.220832 -0.946425,-0.220832 h -1.261898 q -0.599402,0 -0.946425,0.220832 -0.347022,0.220833 -0.347022,0.662497 v 1.514279 q 0,0.473212 0.347022,0.694044 0.347023,0.220833 0.946425,0.189285 h 1.8613 q 0.75714,0 1.419637,0.157737 0.662496,0.157738 1.167256,0.473212 0.536307,0.283928 0.820234,0.725592 0.315475,0.441665 0.315475,1.009519 v 3.438675 q 0,0.567854 -0.315475,1.009519 -0.283927,0.441665 -0.820234,0.757139 -0.50476,0.283928 -1.167256,0.441665 -0.662497,0.157737 -1.419637,0.157737 h -2.460702 q -0.725592,0 -1.419637,-0.157737 -0.662497,-0.157737 -1.167256,-0.441665 -0.50476,-0.315474 -0.820234,-0.757139 -0.315475,-0.441665 -0.315475,-1.009519 v -1.766659 h 3.028557 v 1.482732 q 0,0.441664 0.347022,0.662497 0.347023,0.220832 0.946425,0.220832 h 1.261898 q 0.599402,0 0.946425,-0.220832 0.347022,-0.220833 0.347022,-0.662497 v -2.87082 q 0,-0.441665 -0.347022,-0.662497 -0.347023,-0.220833 -0.946425,-0.220833 z"
         style="font-size:27.4463px;font-family:Dhurjati;-inkscape-font-specification:'Dhurjati, Normal'"
         id="path4100" /></g><g
       aria-label="Sonic"
       id="text113-7"
       style="font-size:9.25425px;fill:#072031;stroke-width:0.771186"><path
         d="m 78.126412,80.507539 q -0.65241,0 -1.276454,-0.113463 -0.595678,-0.141828 -1.049528,-0.397119 -0.45385,-0.283656 -0.737507,-0.680775 -0.283656,-0.397119 -0.283656,-0.9077 v -1.900497 q 0,-0.510582 0.283656,-0.907701 0.283657,-0.397118 0.737507,-0.652409 0.45385,-0.283657 1.049528,-0.425485 0.624044,-0.141828 1.276454,-0.141828 h 2.212519 q 0.680775,0 1.276454,0.141828 0.595678,0.141828 1.049528,0.425485 0.482216,0.255291 0.737506,0.652409 0.283657,0.397119 0.283657,0.907701 v 1.162991 h -2.723101 v -0.907701 q 0,-0.397119 -0.312022,-0.595678 -0.312022,-0.198559 -0.850969,-0.198559 h -1.134625 q -0.538947,0 -0.850969,0.198559 -0.312022,0.198559 -0.312022,0.595678 v 1.361551 q 0,0.425484 0.312022,0.624044 0.312022,0.198559 0.850969,0.170193 h 1.673572 q 0.680775,0 1.276454,0.141829 0.595678,0.141828 1.049528,0.425484 0.482216,0.255291 0.737506,0.65241 0.283657,0.397118 0.283657,0.9077 v 3.091854 q 0,0.510581 -0.283657,0.9077 -0.25529,0.397119 -0.737506,0.680775 -0.45385,0.255291 -1.049528,0.397119 -0.595679,0.141828 -1.276454,0.141828 h -2.212519 q -0.65241,0 -1.276454,-0.141828 -0.595678,-0.141828 -1.049528,-0.397119 -0.45385,-0.283656 -0.737507,-0.680775 -0.283656,-0.397119 -0.283656,-0.9077 v -1.588476 h 2.723101 v 1.333185 q 0,0.397119 0.312022,0.595678 0.312022,0.19856 0.850969,0.19856 h 1.134625 q 0.538947,0 0.850969,-0.19856 0.312022,-0.198559 0.312022,-0.595678 v -2.581272 q 0,-0.397119 -0.312022,-0.595679 -0.312022,-0.198559 -0.850969,-0.198559 z"
         style="font-size:24.6781px;font-family:Dhurjati;-inkscape-font-specification:'Dhurjati, Normal'"
         id="path4103" /><path
         d="m 85.728395,79.486376 q 0,-0.510581 0.283657,-0.9077 0.283656,-0.397119 0.737506,-0.65241 0.45385,-0.283656 1.049528,-0.425484 0.624044,-0.141828 1.276454,-0.141828 h 1.900497 q 0.65241,0 1.248088,0.141828 0.595678,0.141828 1.049529,0.425484 0.482215,0.255291 0.737506,0.65241 0.283656,0.397119 0.283656,0.9077 v 4.651964 q 0,0.510581 -0.283656,0.9077 -0.255291,0.397119 -0.737506,0.680775 -0.453851,0.255291 -1.049529,0.397119 -0.595678,0.141828 -1.248088,0.141828 H 89.07554 q -0.65241,0 -1.276454,-0.141828 -0.595678,-0.141828 -1.049528,-0.397119 -0.45385,-0.283656 -0.737506,-0.680775 -0.283657,-0.397119 -0.283657,-0.9077 z m 5.843321,0.255291 q 0,-0.397119 -0.312022,-0.595679 -0.312022,-0.198559 -0.822604,-0.198559 h -0.822603 q -0.538947,0 -0.850969,0.198559 -0.312022,0.19856 -0.312022,0.595679 v 4.141382 q 0,0.397119 0.312022,0.595678 0.312022,0.19856 0.850969,0.19856 h 0.822603 q 0.510582,0 0.822604,-0.19856 0.312022,-0.198559 0.312022,-0.595678 z"
         style="font-size:24.6781px;font-family:Dhurjati;-inkscape-font-specification:'Dhurjati, Normal'"
         id="path4105" /><path
         d="m 99.060216,86.265762 h -2.723101 v -8.878443 h 2.723101 v 0.538947 q 0.312022,-0.25529 0.794237,-0.397119 0.510577,-0.141828 1.049527,-0.141828 h 0.9928 q 0.68077,0 1.27645,0.141828 0.59568,0.141829 1.04953,0.425485 0.48222,0.255291 0.73751,0.652409 0.28365,0.368754 0.28365,0.879335 v 6.779386 h -2.7231 v -6.49573 q 0,-0.425484 -0.31202,-0.595678 -0.31202,-0.198559 -0.85097,-0.198559 h -0.70914 q -0.31202,0 -0.59568,0.0851 -0.283653,0.0851 -0.510578,0.226925 -0.226926,0.141828 -0.368754,0.340387 -0.113462,0.19856 -0.113462,0.425485 z"
         style="font-size:24.6781px;font-family:Dhurjati;-inkscape-font-specification:'Dhurjati, Normal'"
         id="path4107" /><path
         d="m 107.39971,77.387319 h 2.7231 v 8.878443 h -2.7231 z m 2.7231,-2.382713 v 1.588476 h -2.7231 v -1.588476 z"
         style="font-size:24.6781px;font-family:Dhurjati;-inkscape-font-specification:'Dhurjati, Normal'"
         id="path4109" /><path
         d="m 112.27855,79.486376 q 0,-0.510581 0.28366,-0.9077 0.28366,-0.397119 0.73751,-0.65241 0.45385,-0.283656 1.04952,-0.425484 0.62405,-0.141828 1.27646,-0.141828 h 1.9005 q 0.65241,0 1.24808,0.141828 0.59568,0.141828 1.04953,0.425484 0.48222,0.255291 0.73751,0.65241 0.28365,0.397119 0.28365,0.9077 v 0.9077 h -2.7231 v -0.652409 q 0,-0.397119 -0.31202,-0.595679 -0.31202,-0.198559 -0.8226,-0.198559 h -0.8226 q -0.53895,0 -0.85097,0.198559 -0.31203,0.19856 -0.31203,0.595679 v 4.141382 q 0,0.397119 0.31203,0.595678 0.31202,0.19856 0.85097,0.19856 h 0.8226 q 0.51058,0 0.8226,-0.19856 0.31202,-0.198559 0.31202,-0.595678 v -0.624044 h 2.7231 v 0.879335 q 0,0.510581 -0.28365,0.9077 -0.25529,0.397119 -0.73751,0.680775 -0.45385,0.255291 -1.04953,0.397119 -0.59567,0.141828 -1.24808,0.141828 h -1.9005 q -0.65241,0 -1.27646,-0.141828 -0.59567,-0.141828 -1.04952,-0.397119 -0.45385,-0.283656 -0.73751,-0.680775 -0.28366,-0.397119 -0.28366,-0.9077 z"
         style="font-size:24.6781px;font-family:Dhurjati;-inkscape-font-specification:'Dhurjati, Normal'"
         id="path4111" /></g><g
       aria-label="2"
       id="text113-7-7"
       style="font-size:82.9529px;-inkscape-font-specification:'sans-serif, Normal';fill:#072031;stroke:#072031;stroke-width:5.37919"><g
         id="path4087"><path
           id="path4092"
           style="color:#000000;-inkscape-font-specification:'sans-serif, Normal';stroke:none;-inkscape-stroke:none"
           d="M 61.124951 35.218522 C 58.494005 35.218522 55.672618 35.58945 52.648466 36.302694 C 49.628435 37.014966 46.426953 38.057298 43.029415 39.421883 L 41.341663 40.099361 L 41.341663 54.763582 L 45.341935 52.529093 C 48.454844 50.791052 51.333034 49.520146 53.951229 48.697286 C 56.593407 47.875298 59.035138 47.48444 61.287215 47.48444 C 64.403807 47.48444 66.56633 48.285475 68.273352 49.827966 L 68.279553 49.834167 L 68.285238 49.837785 C 70.02632 51.392322 70.788961 53.109131 70.788961 55.689624 C 70.788961 57.181864 70.399248 58.757106 69.505835 60.498116 L 69.502218 60.5038 L 69.500151 60.510002 C 68.653628 62.180769 66.953477 64.545965 64.421908 67.390719 L 64.416223 67.396403 L 64.410022 67.402604 C 63.161005 68.823055 59.755933 72.360391 54.392546 77.777681 C 49.041507 83.18277 44.811175 87.494509 41.693062 90.721077 L 40.937553 91.501908 L 40.937553 102.16431 L 84.714726 102.16431 L 84.714726 89.900456 L 59.855261 89.900456 C 63.911438 85.754166 68.141519 81.430904 70.708862 78.786922 L 70.712996 78.784855 L 70.716614 78.781238 C 74.341855 75.020727 76.418631 72.838837 77.257817 71.865381 L 77.283138 71.835925 L 77.306392 71.80647 C 79.861636 68.661555 81.687966 65.882222 82.765491 63.285026 C 83.845625 60.719277 84.390715 57.985209 84.390715 55.164075 C 84.390715 49.287786 82.13348 44.156479 77.84176 40.548946 C 73.547097 36.938977 67.837876 35.218522 61.124951 35.218522 z " /></g></g><path
       style="color:#000000;fill:#072031;-inkscape-stroke:none"
       d="m -50.351562,23.988281 c 0,4.591095 -2.010638,8.946989 -5.50586,11.923828 -3.495222,2.976839 -8.115874,4.269827 -12.648437,3.539063 l -0.820313,5.091797 c 6.021386,0.9708 12.169194,-0.75043 16.8125,-4.705078 4.643306,-3.954649 7.320313,-9.750467 7.320313,-15.84961 z"
       id="path2475"
       transform="matrix(-0.6799093,-0.73329622,0.97589731,-0.21823023,0,0)" /><path
       style="color:#000000;fill:#072031;-inkscape-stroke:none"
       d="m -38.529297,25.742187 c 0,7.280169 -3.189995,14.187784 -8.732422,18.908204 -5.542427,4.720419 -12.869285,6.770111 -20.05664,5.611328 l -1.300782,8.074218 c 9.548206,1.539413 19.297194,-1.188036 26.660157,-7.458984 7.362963,-6.270948 11.609375,-15.46326 11.609375,-25.134766 z"
       id="path2475-2"
       transform="matrix(-0.6799093,-0.73329622,0.97589731,-0.21823023,0,0)" /></g></svg>
